<svg width="43" height="28" viewBox="0 0 43 28" fill="none" xmlns="http://www.w3.org/2000/svg">
<path fill-rule="evenodd" clip-rule="evenodd" d="M-5.90187e-07 14.0001C-6.07576e-07 13.6022 0.158035 13.2207 0.439339 12.9394C0.720644 12.6581 1.10217 12.5001 1.5 12.5001L36.879 12.5001L27.438 3.06206C27.1563 2.7804 26.9981 2.39838 26.9981 2.00006C26.9981 1.60173 27.1563 1.21972 27.438 0.938058C27.7197 0.656398 28.1017 0.498164 28.5 0.498164C28.8983 0.498164 29.2803 0.656397 29.562 0.938058L41.562 12.9381C41.7017 13.0774 41.8125 13.2429 41.8881 13.4252C41.9638 13.6074 42.0027 13.8028 42.0027 14.0001C42.0027 14.1974 41.9638 14.3927 41.8881 14.575C41.8125 14.7572 41.7017 14.9227 41.562 15.0621L29.562 27.0621C29.2803 27.3437 28.8983 27.502 28.5 27.502C28.1017 27.502 27.7197 27.3437 27.438 27.0621C27.1563 26.7804 26.9981 26.3984 26.9981 26.0001C26.9981 25.6017 27.1563 25.2197 27.438 24.9381L36.879 15.5001L1.5 15.5001C1.10217 15.5001 0.720644 15.342 0.439339 15.0607C0.158035 14.7794 -5.72797e-07 14.3979 -5.90187e-07 14.0001Z" fill="#FFA216"/>
</svg>
