<svg width="290" height="297" viewBox="0 0 290 297" fill="none" xmlns="http://www.w3.org/2000/svg">
<path d="M230.299 10.1941C265.642 24.1936 294.329 59.3071 288.362 93.2731C282.395 127.469 242.003 160.287 216.988 186.221C192.202 212.154 182.792 231.203 167.645 248.645C152.498 265.857 131.384 281.693 104.074 290.414C76.7634 299.135 42.7974 301.2 29.2569 283.299C15.7164 265.398 22.3719 227.76 23.5194 199.302C24.8964 171.074 20.7654 152.025 12.7329 117.83C4.70044 83.6341 -7.23356 34.5211 8.60193 14.0956C24.2079 -6.32991 67.3539 2.16159 110.041 2.85009C152.728 3.53859 194.956 -3.80542 230.299 10.1941Z" fill="#FFA216"/>
</svg>
