<svg width="149" height="149" viewBox="0 0 149 149" fill="none" xmlns="http://www.w3.org/2000/svg">
<path d="M18.7884 33.4407C19.2184 29.8799 20.3557 26.4411 22.1337 23.3262C23.9116 20.2113 26.2942 17.4832 29.1414 15.3022C31.9887 13.1211 35.2431 11.5312 38.7136 10.6259C42.184 9.72048 45.8004 9.5179 49.3502 10.03L57.5615 11.2243L64.0788 6.10293C66.9011 3.88758 70.1378 2.25889 73.5987 1.31266C77.0596 0.366432 80.6747 0.121758 84.2315 0.593027C87.7883 1.06429 91.215 2.24199 94.31 4.05687C97.405 5.87174 100.106 8.28715 102.254 11.161L107.22 17.7973L115.444 18.794C119.005 19.224 122.444 20.3614 125.559 22.1393C128.674 23.9172 131.402 26.2998 133.583 29.147C135.764 31.9943 137.354 35.2488 138.259 38.7192C139.164 42.1896 139.367 45.806 138.855 49.3559L137.668 57.5615L142.789 64.0788C145.005 66.901 146.633 70.1378 147.58 73.5987C148.526 77.0595 148.77 80.6747 148.299 84.2315C147.828 87.7883 146.65 91.2149 144.835 94.31C143.02 97.405 140.605 100.106 137.731 102.254L131.095 107.22L130.098 115.444C129.668 119.005 128.531 122.444 126.753 125.559C124.975 128.673 122.592 131.402 119.745 133.583C116.898 135.764 113.643 137.354 110.173 138.259C106.703 139.164 103.086 139.367 99.5364 138.855L91.3307 137.668L84.8134 142.789C81.9912 145.005 78.7544 146.633 75.2936 147.58C71.8327 148.526 68.2176 148.77 64.6608 148.299C61.104 147.828 57.6773 146.65 54.5822 144.835C51.4872 143.02 48.7863 140.605 46.6384 137.731L41.6723 131.095L33.4481 130.098C29.8874 129.668 26.4485 128.531 23.3336 126.753C20.2187 124.975 17.4906 122.592 15.3096 119.745C13.1286 116.898 11.5387 113.643 10.6333 110.173C9.72792 106.703 9.52534 103.086 10.0375 99.5363L11.2243 91.3307L6.10298 84.8134C3.88762 81.9911 2.25894 78.7544 1.31271 75.2935C0.366475 71.8326 0.121801 68.2175 0.59307 64.6607C1.06434 61.1039 2.24204 57.6772 4.05691 54.5822C5.87179 51.4872 8.28719 48.7863 11.1611 46.6383L17.7973 41.6722L18.794 33.4481L18.7884 33.4407ZM84.057 102.276C84.8006 103.247 85.7282 104.062 86.7868 104.674C87.8454 105.287 89.0142 105.684 90.2266 105.845C91.4389 106.006 92.671 105.926 93.8525 105.61C95.0341 105.295 96.1419 104.75 97.1127 104.006C98.0836 103.262 98.8984 102.335 99.5108 101.276C100.123 100.218 100.521 99.0487 100.682 97.8364C100.842 96.6241 100.762 95.3919 100.447 94.2104C100.131 93.0289 99.5862 91.9211 98.8426 90.9502C97.3407 88.9895 95.1214 87.7058 92.673 87.3814C90.2245 87.057 87.7475 87.7185 85.7868 89.2204C83.8261 90.7223 82.5424 92.9416 82.218 95.39C81.8935 97.8384 82.555 100.315 84.057 102.276ZM84.4214 78.2189C81.6931 74.0446 81.2699 71.0725 83.5404 64.1131C85.8333 56.7847 85.1303 50.1088 80.0563 43.4849C72.5529 33.6894 60.6435 32.231 50.7223 39.8307C43.1817 45.6069 40.2606 53.6159 42.5026 61.2596C43.0468 63.3994 44.0301 65.4026 45.3899 67.1421C47.6154 70.0475 50.5149 70.7239 53.0432 68.7872C55.0541 67.2469 55.5745 65.1238 54.3247 61.823C52.1403 56.5517 53.0243 52.0855 57.083 48.9765C61.5926 45.5221 67.2232 46.4409 70.8362 51.1575C74.0244 55.3196 74.3102 58.878 72.2627 65.6079C70.1386 72.3144 70.5929 77.6088 74.7042 82.976L75.3328 83.7966C77.7565 86.9607 81.0894 88.1264 83.8765 85.9914C86.3605 84.0887 86.2434 81.363 84.4214 78.2189Z" fill="white"/>
</svg>
