<svg width="28" height="28" viewBox="0 0 28 28" fill="none" xmlns="http://www.w3.org/2000/svg">
<path d="M14 0.666748C11.3629 0.666748 8.78502 1.44873 6.59236 2.91382C4.39971 4.37891 2.69074 6.46129 1.68157 8.89764C0.672403 11.334 0.408359 14.0149 0.922828 16.6013C1.4373 19.1877 2.70717 21.5635 4.57188 23.4282C6.43658 25.2929 8.81235 26.5627 11.3988 27.0772C13.9852 27.5917 16.6661 27.3276 19.1024 26.3185C21.5388 25.3093 23.6211 23.6003 25.0862 21.4077C26.5513 19.215 27.3333 16.6372 27.3333 14.0001C27.3333 12.2491 26.9884 10.5153 26.3184 8.89764C25.6483 7.27996 24.6662 5.81011 23.4281 4.57199C22.1899 3.33388 20.7201 2.35175 19.1024 1.68169C17.4847 1.01162 15.7509 0.666748 14 0.666748ZM14 22.0001C13.7363 22.0001 13.4785 21.9219 13.2592 21.7754C13.0399 21.6289 12.869 21.4206 12.7681 21.177C12.6672 20.9334 12.6408 20.6653 12.6923 20.4066C12.7437 20.148 12.8707 19.9104 13.0572 19.7239C13.2436 19.5375 13.4812 19.4105 13.7398 19.359C13.9985 19.3076 14.2666 19.334 14.5102 19.4349C14.7538 19.5358 14.9621 19.7067 15.1086 19.926C15.2551 20.1453 15.3333 20.403 15.3333 20.6667C15.3333 21.0204 15.1928 21.3595 14.9428 21.6096C14.6927 21.8596 14.3536 22.0001 14 22.0001ZM15.3333 15.1201V16.6667C15.3333 17.0204 15.1928 17.3595 14.9428 17.6096C14.6927 17.8596 14.3536 18.0001 14 18.0001C13.6463 18.0001 13.3072 17.8596 13.0572 17.6096C12.8071 17.3595 12.6666 17.0204 12.6666 16.6667V14.0001C12.6666 13.6465 12.8071 13.3073 13.0572 13.0573C13.3072 12.8072 13.6463 12.6667 14 12.6667C14.3955 12.6667 14.7822 12.5495 15.1111 12.3297C15.44 12.1099 15.6964 11.7976 15.8477 11.4321C15.9991 11.0667 16.0387 10.6645 15.9615 10.2766C15.8844 9.88861 15.6939 9.53224 15.4142 9.25253C15.1345 8.97283 14.7781 8.78235 14.3901 8.70518C14.0022 8.62801 13.6001 8.66761 13.2346 8.81899C12.8691 8.97036 12.5568 9.22671 12.337 9.55561C12.1173 9.88451 12 10.2712 12 10.6667C12 11.0204 11.8595 11.3595 11.6094 11.6096C11.3594 11.8596 11.0203 12.0001 10.6666 12.0001C10.313 12.0001 9.97387 11.8596 9.72382 11.6096C9.47377 11.3595 9.3333 11.0204 9.3333 10.6667C9.32981 9.80048 9.56751 8.95035 10.0198 8.21151C10.4721 7.47268 11.1211 6.87432 11.8941 6.48342C12.6672 6.09252 13.5338 5.92451 14.3969 5.99821C15.2601 6.0719 16.0856 6.38439 16.7812 6.90068C17.4768 7.41697 18.015 8.11669 18.3355 8.9215C18.656 9.72631 18.7461 10.6044 18.5958 11.4576C18.4455 12.3107 18.0608 13.1052 17.4845 13.752C16.9083 14.3989 16.1635 14.8726 15.3333 15.1201Z" fill="#FFA216"/>
</svg>
