<svg width="171" height="171" viewBox="0 0 171 171" fill="none" xmlns="http://www.w3.org/2000/svg">
<path d="M160.746 105.708C163.122 105.32 165.317 104.199 167.024 102.501C168.73 100.803 169.863 98.6133 170.262 96.2392C170.662 93.8652 170.308 91.4257 169.251 89.2628C168.194 87.0999 166.486 85.3221 164.368 84.1786L123.684 61.0799C123.488 60.96 123.33 60.7857 123.23 60.5781C123.13 60.3705 123.092 60.1384 123.121 59.9099L128.877 13.7394C129.179 11.3951 128.753 9.01471 127.658 6.92042C126.562 4.82612 124.849 3.11912 122.751 2.03054C120.653 0.941952 118.271 0.524357 115.928 0.834301C113.585 1.14425 111.393 2.16675 109.65 3.76339L75.1897 35.2158C75.0195 35.371 74.808 35.4738 74.5807 35.5116C74.3534 35.5494 74.1201 35.5207 73.9087 35.4289L31.5986 15.4656C29.4439 14.3919 27.0072 14.0194 24.6301 14.4005C22.2531 14.7816 20.0549 15.897 18.3438 17.5904C16.6327 19.2839 15.4945 21.4703 15.0888 23.8433C14.683 26.2163 15.0301 28.6567 16.0814 30.8224L35.3558 73.302C35.4522 73.5147 35.4842 73.751 35.4477 73.9817C35.4112 74.2124 35.3079 74.4273 35.1505 74.5999L3.34844 108.485C1.71894 110.205 0.658952 112.386 0.312666 114.73C-0.0336208 117.074 0.35061 119.468 1.41309 121.586C2.47556 123.704 4.16469 125.443 6.25071 126.567C8.33672 127.691 10.7183 128.145 13.0715 127.868L59.4294 122.661C59.6595 122.632 59.8931 122.673 60.0989 122.78C60.3048 122.887 60.4734 123.054 60.5821 123.259L83.0166 164.159C84.1001 166.271 85.8143 167.993 87.9213 169.087C90.0283 170.18 92.4234 170.59 94.774 170.26C97.1118 169.921 99.2871 168.866 101.001 167.24C102.714 165.613 103.882 163.496 104.343 161.179L113.716 115.481C113.76 115.25 113.874 115.039 114.043 114.875C114.212 114.711 114.427 114.603 114.659 114.566L160.746 105.708Z" fill="white"/>
</svg>
